<svg width="22" height="21" viewBox="0 0 22 21" fill="none" xmlns="http://www.w3.org/2000/svg">
<rect y="2" width="22" height="19" rx="1" fill="white"/>
<rect x="2.09521" width="2.09524" height="4" rx="1" fill="white"/>
<rect x="22" y="6" width="1" height="22" transform="rotate(90 22 6)" fill="#141721"/>
<rect x="17.8096" width="2.09524" height="4" rx="1" fill="white"/>
<rect x="2" y="9" width="2" height="2" rx="0.2" fill="#D9D9D9"/>
<rect x="10" y="9" width="2" height="2" rx="0.2" fill="#FF7979"/>
<rect x="6" y="9" width="2" height="2" rx="0.2" fill="#D9D9D9"/>
<rect x="14" y="9" width="2" height="2" rx="0.2" fill="#D9D9D9"/>
<rect x="18" y="9" width="2" height="2" rx="0.2" fill="#D9D9D9"/>
<rect x="2" y="13" width="2" height="2" rx="0.2" fill="#D9D9D9"/>
<rect x="10" y="13" width="2" height="2" rx="0.2" fill="#D9D9D9"/>
<rect x="6" y="13" width="2" height="2" rx="0.2" fill="#D9D9D9"/>
<rect x="14" y="13" width="2" height="2" rx="0.2" fill="#FF6969"/>
<rect x="18" y="13" width="2" height="2" rx="0.2" fill="#D9D9D9"/>
<rect x="2" y="17" width="2" height="2" rx="0.2" fill="#D9D9D9"/>
<rect x="10" y="17" width="2" height="2" rx="0.2" fill="#D9D9D9"/>
<rect x="6" y="17" width="2" height="2" rx="0.2" fill="#D9D9D9"/>
<rect x="14" y="17" width="2" height="2" rx="0.2" fill="#D9D9D9"/>
<rect x="18" y="17" width="2" height="2" rx="0.2" fill="#D9D9D9"/>
</svg>
