<svg width="22" height="20" viewBox="0 0 22 20" fill="none" xmlns="http://www.w3.org/2000/svg">
<path fill-rule="evenodd" clip-rule="evenodd" d="M11.2628 0.162671C11.1017 0.062964 10.898 0.0629637 10.7368 0.162671L0.371147 6.57474C-0.0570949 6.83965 0.130629 7.49996 0.634183 7.49996H1.99981V11L1.99981 11.0013V19C1.99981 19.5522 2.44753 20 2.99981 20H7.99981C8.55209 20 8.99981 19.5522 8.99981 19V12H12.9998V19C12.9998 19.5522 13.4475 20 13.9998 20H18.9998C19.5521 20 19.9998 19.5522 19.9998 19V11V8.99996V7.49996H21.3654C21.869 7.49996 22.0567 6.83965 21.6285 6.57474L11.2628 0.162671Z" fill="white"/>
</svg>
